<svg xmlns="http://www.w3.org/2000/svg" viewBox="0 0 512 512">
  <g fill="#ffc66c">
    <path d="M39.457 381.501h395.598c37.339 0 67.538 30.569 66.936 68.045-.469 29.175-24.557 52.454-53.737 52.454H52.846c22.546 0 40.823-18.277 40.823-40.823v-38.854c0-22.546-18.277-40.823-40.823-40.823H39.457z"/>
    <path d="M450 304.282h40v-73.5c0-11.046-8.954-20-20-20s-20 8.954-20 20v73.5z"/>
  </g>
  <path d="M107.466 183.38v63.68c0 7.404 3.903 14.26 10.269 18.04l127.554 75.736a20.983 20.983 0 0021.423 0L394.266 265.1a20.981 20.981 0 0010.269-18.04v-60.973" fill="#5a54e0"/>
  <path d="M465.505 147.179l-200.08 118.797a18.462 18.462 0 01-18.849 0L46.496 147.179c-5.993-3.558-5.993-12.234 0-15.792L246.576 12.59a18.462 18.462 0 0118.849 0l200.08 118.797c5.993 3.558 5.993 12.234 0 15.792z" fill="#6a80ff"/>
  <ellipse cx="255.999" cy="141.899" rx="28.901" ry="24.664" fill="#72d8ff"/>
  <path d="M39.457 425.225v-43.724c36.972 0 66.944 29.972 66.944 66.944 0 29.578-23.978 53.556-53.556 53.556-23.662 0-42.844-19.182-42.844-42.844 0-18.93 15.346-34.276 34.276-34.276 15.144 0 27.42 12.277 27.42 27.42" fill="#feda9b"/>
  <path d="M41.391 155.778l56.075 33.294v57.988c0 10.878 5.811 21.086 15.164 26.639l127.554 75.736a30.96 30.96 0 0031.634 0l127.553-75.736c9.354-5.553 15.164-15.76 15.164-26.639v-57.988l45.464-26.994v40.425c-11.639 4.128-20 15.243-20 28.28v73.5c0 5.523 4.477 10 10 10h40c5.523 0 10-4.477 10-10v-73.5c0-13.036-8.361-24.152-20-28.28v-63.221c0-6.837-3.51-13.003-9.389-16.494L270.53 3.991a28.443 28.443 0 00-29.059 0L41.391 122.789c-5.879 3.491-9.389 9.657-9.389 16.494s3.509 13.003 9.389 16.495zm81.449 100.724a11.028 11.028 0 01-5.374-9.441v-46.113l124.005 73.628a28.385 28.385 0 004.53 2.159v52.894L122.84 256.502zm271.695-9.442c0 3.855-2.059 7.473-5.375 9.441l-123.159 73.128v-52.894a28.471 28.471 0 004.53-2.159l124.005-73.628v46.112h-.001zM480 294.282h-20v-63.5c0-5.514 4.486-10 10-10s10 4.486 10 10v63.5zM251.681 21.189a8.456 8.456 0 018.638 0l198.897 118.095-198.897 118.095a8.456 8.456 0 01-8.638 0L52.785 139.283 251.681 21.189z"/>
  <path d="M294.902 141.899c0-19.114-17.451-34.664-38.901-34.664s-38.902 15.55-38.902 34.664S234.55 176.563 256 176.563s38.902-15.55 38.902-34.664zm-57.803 0c0-7.949 8.656-14.664 18.901-14.664s18.901 6.715 18.901 14.664-8.656 14.664-18.901 14.664-18.901-6.715-18.901-14.664z"/>
  <path d="M435.055 371.501H223.001c-5.523 0-10 4.477-10 10s4.477 10 10 10h33c31.399 0 56.944 25.545 56.944 56.944 0 24.017-19.539 43.556-43.556 43.556H99.066c10.735-11.385 17.335-26.71 17.335-43.556 0-22.546-9.748-42.859-25.25-56.944h43.183c5.523 0 10-4.477 10-10s-4.477-10-10-10H39.457c-.196 0-.366.01-.522.026-5.279.273-9.478 4.627-9.478 9.974 0 5.124 3.856 9.341 8.823 9.925.248.05.628.075 1.177.075 31.399 0 56.944 25.545 56.944 56.944 0 24.017-19.539 43.556-43.556 43.556-18.11 0-32.844-14.734-32.844-32.844 0-13.386 10.89-24.276 24.275-24.276 9.605 0 17.42 7.815 17.42 17.42 0 5.523 4.477 10 10 10s10-4.477 10-10c0-20.634-16.787-37.42-37.42-37.42-24.414 0-44.275 19.862-44.275 44.276C.002 488.294 23.707 512 52.845 512h395.598c35.045 0 63.556-28.511 63.556-63.556.001-42.426-34.517-76.943-76.944-76.943zM448.444 492H315.609c10.735-11.385 17.335-26.71 17.335-43.556 0-22.546-9.748-42.859-25.25-56.944h127.36c31.399 0 56.944 25.545 56.944 56.944C492 472.461 472.46 492 448.444 492z"/>
  <path d="M171.931 374.431a10.076 10.076 0 00-2.93 7.07c0 2.63 1.07 5.21 2.93 7.07 1.86 1.86 4.44 2.93 7.07 2.93s5.21-1.07 7.07-2.93c1.86-1.86 2.93-4.44 2.93-7.07s-1.07-5.21-2.93-7.07a10.076 10.076 0 00-7.07-2.93c-2.63 0-5.209 1.07-7.07 2.93z"/>
</svg>
