<svg xmlns="http://www.w3.org/2000/svg" viewBox="0 0 512 512">
  <path d="M160.732 62.053v20.178c0 13.155-10.664 23.817-23.817 23.817h-12.331c-13.155 0-23.817-10.664-23.817-23.817V62.053h59.965z" fill="#ffb68d"/>
  <path fill="#f1f2f2" d="M153.983 10.029h293.968v191.979H153.983z"/>
  <path d="M215.824 154.012l-19.668 19.668v-26.767a30.962 30.962 0 00-20.824-29.255l-33.331-11.55h-21.168l-35.547 11.724a30.96 30.96 0 00-21.264 29.403v77.77h132.134v-.192l36.082-56.802-16.414-13.999z" fill="#ffc639"/>
  <path fill="#f1f2f2" d="M114.177 112.305l17.444 50.039 17.444-50.039z"/>
  <g fill="#039fdd">
    <path d="M59.408 445.98h-.481c-27.022 0-48.928 21.906-48.928 48.928v7.066h98.335v-7.066c0-27.023-21.904-48.928-48.926-48.928z"/>
    <path d="M157.743 445.98h-.481c-27.022 0-48.928 21.906-48.928 48.928v7.066h98.335v-7.066c.001-27.023-21.904-48.928-48.926-48.928z"/>
    <path d="M256.402 445.98h-.481c-27.022 0-48.928 21.906-48.928 48.928v7.066h98.335v-7.066c.002-27.023-21.904-48.928-48.926-48.928z"/>
    <path d="M354.738 445.98h-.481c-27.022 0-48.928 21.906-48.928 48.928v7.066h98.335v-7.066c.001-27.023-21.905-48.928-48.926-48.928z"/>
    <path d="M453.073 445.98h-.481c-27.022 0-48.928 21.906-48.928 48.928v7.066H502v-7.066c.001-27.023-21.905-48.928-48.927-48.928z"/>
    <path d="M59.408 311.994h-.481c-27.022 0-48.928 21.906-48.928 48.928v7.066h98.335v-7.066c0-27.022-21.904-48.928-48.926-48.928z"/>
    <path d="M157.743 311.994h-.481c-27.022 0-48.928 21.906-48.928 48.928v7.066h98.335v-7.066c.001-27.022-21.904-48.928-48.926-48.928z"/>
    <path d="M256.402 311.994h-.481c-27.022 0-48.928 21.906-48.928 48.928v7.066h98.335v-7.066c.002-27.022-21.904-48.928-48.926-48.928z"/>
    <path d="M354.738 311.994h-.481c-27.022 0-48.928 21.906-48.928 48.928v7.066h98.335v-7.066c.001-27.022-21.905-48.928-48.926-48.928z"/>
    <path d="M453.073 311.994h-.481c-27.022 0-48.928 21.906-48.928 48.928v7.066H502v-7.066c.001-27.022-21.905-48.928-48.927-48.928z"/>
  </g>
  <g fill="#0049a0">
    <path d="M180.272 412.756v15.103c0 9.99-8.098 18.088-18.088 18.088h-9.364c-9.99 0-18.088-8.098-18.088-18.088v-15.103c0-12.576 10.195-22.771 22.77-22.771 12.575.001 22.77 10.196 22.77 22.771z"/>
    <path d="M81.937 412.756v15.103c0 9.99-8.098 18.088-18.088 18.088h-9.364c-9.99 0-18.088-8.098-18.088-18.088v-15.103c0-12.576 10.195-22.771 22.771-22.771 12.574.001 22.769 10.196 22.769 22.771z"/>
    <path d="M377.268 412.756v15.103c0 9.99-8.098 18.088-18.088 18.088h-9.364c-9.99 0-18.088-8.098-18.088-18.088v-15.103c0-12.576 10.195-22.771 22.771-22.771 12.574.001 22.769 10.196 22.769 22.771z"/>
    <path d="M475.603 412.756v15.103c0 9.99-8.098 18.088-18.088 18.088h-9.364c-9.99 0-18.088-8.098-18.088-18.088v-15.103c0-12.576 10.195-22.771 22.771-22.771 12.574.001 22.769 10.196 22.769 22.771z"/>
    <path d="M278.932 412.756v15.103c0 9.99-8.098 18.088-18.088 18.088h-9.364c-9.99 0-18.088-8.098-18.088-18.088v-15.103c0-12.576 10.195-22.771 22.77-22.771 12.576.001 22.77 10.196 22.77 22.771z"/>
    <path d="M180.272 278.771v15.103c0 9.99-8.098 18.088-18.088 18.088h-9.364c-9.99 0-18.088-8.098-18.088-18.088v-15.103c0-12.576 10.195-22.771 22.77-22.771 12.575.001 22.77 10.195 22.77 22.771z"/>
    <path d="M81.937 278.771v15.103c0 9.99-8.098 18.088-18.088 18.088h-9.364c-9.99 0-18.088-8.098-18.088-18.088v-15.103c0-12.576 10.195-22.771 22.771-22.771 12.574.001 22.769 10.195 22.769 22.771z"/>
    <path d="M377.268 278.771v15.103c0 9.99-8.098 18.088-18.088 18.088h-9.364c-9.99 0-18.088-8.098-18.088-18.088v-15.103c0-12.576 10.195-22.771 22.771-22.771 12.574.001 22.769 10.195 22.769 22.771z"/>
    <path d="M475.603 278.771v15.103c0 9.99-8.098 18.088-18.088 18.088h-9.364c-9.99 0-18.088-8.098-18.088-18.088v-15.103c0-12.576 10.195-22.771 22.771-22.771 12.574.001 22.769 10.195 22.769 22.771z"/>
    <path d="M278.932 278.771v15.103c0 9.99-8.098 18.088-18.088 18.088h-9.364c-9.99 0-18.088-8.098-18.088-18.088v-15.103c0-12.576 10.195-22.771 22.77-22.771 12.576.001 22.77 10.195 22.77 22.771z"/>
    <path d="M175.254 10.027l-5.384 4.595a30.887 30.887 0 01-20.05 7.393h-45.521c-6.359 0-11.515 5.155-11.515 11.515v15.36c0 7.269 5.893 13.163 13.163 13.163h46.91c12.37 0 22.398-10.028 22.398-22.398V10.027z"/>
  </g>
  <path d="M481.1 443.084a27.907 27.907 0 004.502-15.223v-15.103c0-18.069-14.7-32.769-32.769-32.769s-32.769 14.7-32.769 32.769v15.103a27.919 27.919 0 004.502 15.224 59.372 59.372 0 00-20.9 19.022 59.366 59.366 0 00-20.901-19.022 27.908 27.908 0 004.503-15.223v-15.103c0-18.069-14.7-32.769-32.769-32.769s-32.769 14.7-32.769 32.769v15.103a27.906 27.906 0 004.503 15.223 59.384 59.384 0 00-20.901 19.022 59.367 59.367 0 00-20.901-19.022 27.908 27.908 0 004.503-15.223v-15.103c0-18.069-14.7-32.769-32.769-32.769s-32.769 14.7-32.769 32.769v15.103a27.906 27.906 0 004.503 15.223 59.375 59.375 0 00-21.063 19.274 59.369 59.369 0 00-21.063-19.275 27.908 27.908 0 004.503-15.223v-15.103c0-18.069-14.7-32.769-32.769-32.769s-32.769 14.7-32.769 32.769v15.103a27.911 27.911 0 004.503 15.224 59.384 59.384 0 00-20.901 19.022 59.367 59.367 0 00-20.901-19.022 27.908 27.908 0 004.503-15.223v-15.103c0-18.069-14.7-32.769-32.769-32.769s-32.772 14.697-32.772 32.767v15.103a27.906 27.906 0 004.503 15.223C12.512 453.068 0 472.553 0 494.906v7.066c0 5.522 4.477 9.999 9.999 9.999h492.002c5.522 0 9.999-4.477 9.999-9.999v-7.066c0-22.353-12.513-41.838-30.9-51.822zm-41.039-30.328c0-7.042 5.729-12.772 12.772-12.772s12.772 5.729 12.772 12.772v15.103c0 4.461-3.629 8.089-8.089 8.089h-9.364c-4.461 0-8.09-3.629-8.09-8.089v-15.103zm-98.335 0c0-7.042 5.729-12.772 12.772-12.772 7.042 0 12.772 5.729 12.772 12.772v15.103c0 4.461-3.629 8.089-8.089 8.089h-9.364c-4.461 0-8.089-3.629-8.089-8.089v-15.103h-.002zm-98.336 0c0-7.042 5.729-12.772 12.772-12.772 7.042 0 12.772 5.729 12.772 12.772v15.103c0 4.461-3.629 8.089-8.089 8.089h-9.365c-4.461 0-8.089-3.629-8.089-8.089l-.001-15.103zm-98.66 0c0-7.042 5.729-12.772 12.772-12.772 7.042 0 12.772 5.729 12.772 12.772v15.103c0 4.461-3.629 8.089-8.09 8.089h-9.364c-4.461 0-8.089-3.629-8.089-8.089l-.001-15.103zm-98.335 0c0-7.042 5.729-12.772 12.772-12.772 7.042 0 12.772 5.729 12.772 12.772v15.103c0 4.461-3.629 8.089-8.089 8.089h-9.364c-4.461 0-8.089-3.629-8.089-8.089l-.002-15.103zm-26.288 79.219c1.504-20.101 18.34-35.996 38.819-35.996h.481c20.479 0 37.315 15.895 38.819 35.996H20.107zm98.336 0c1.504-20.101 18.341-35.996 38.82-35.996h.481c20.479 0 37.315 15.895 38.819 35.996h-78.12zm98.659 0c1.504-20.101 18.34-35.996 38.819-35.996h.481c20.479 0 37.315 15.895 38.819 35.996h-78.119zm98.335 0c1.504-20.101 18.34-35.996 38.819-35.996h.481c20.479 0 37.315 15.895 38.819 35.996h-78.119zm98.337 0c1.504-20.101 18.34-35.996 38.819-35.996h.481c20.479 0 37.315 15.895 38.819 35.996h-78.119z"/>
  <path d="M481.1 309.099a27.907 27.907 0 004.502-15.223v-15.103c0-18.069-14.7-32.769-32.769-32.769s-32.769 14.7-32.769 32.769v15.103a27.919 27.919 0 004.502 15.224 59.363 59.363 0 00-20.9 19.022 59.366 59.366 0 00-20.901-19.022 27.908 27.908 0 004.503-15.223v-15.103c0-18.069-14.7-32.769-32.769-32.769s-32.769 14.7-32.769 32.769v15.103a27.906 27.906 0 004.503 15.223 59.375 59.375 0 00-20.901 19.022 59.367 59.367 0 00-20.901-19.022 27.908 27.908 0 004.503-15.223v-15.103c0-18.069-14.7-32.769-32.769-32.769s-32.769 14.7-32.769 32.769v15.103a27.906 27.906 0 004.503 15.223 59.365 59.365 0 00-21.063 19.274 59.369 59.369 0 00-21.063-19.275 27.908 27.908 0 004.503-15.223v-15.103c0-18.069-14.7-32.769-32.769-32.769s-32.769 14.7-32.769 32.769v15.103a27.911 27.911 0 004.503 15.224 59.375 59.375 0 00-20.901 19.022A59.367 59.367 0 0087.439 309.1a27.908 27.908 0 004.503-15.223v-15.103c0-18.069-14.7-32.769-32.769-32.769s-32.772 14.697-32.772 32.767v15.103a27.906 27.906 0 004.503 15.223C12.512 319.083 0 338.567 0 360.921v7.066c0 5.522 4.477 9.999 9.999 9.999h492.002c5.522 0 9.999-4.477 9.999-9.999v-7.066c0-22.354-12.513-41.838-30.9-51.822zm-41.039-30.328c0-7.042 5.729-12.772 12.772-12.772s12.772 5.729 12.772 12.772v15.103c0 4.461-3.629 8.089-8.089 8.089h-9.364c-4.461 0-8.09-3.629-8.09-8.089v-15.103zm-98.335 0c0-7.042 5.729-12.772 12.772-12.772 7.042 0 12.772 5.729 12.772 12.772v15.103c0 4.461-3.629 8.089-8.089 8.089h-9.364c-4.461 0-8.089-3.629-8.089-8.089v-15.103h-.002zm-98.336 0c0-7.042 5.729-12.772 12.772-12.772 7.042 0 12.772 5.729 12.772 12.772v15.103c0 4.461-3.629 8.089-8.089 8.089h-9.365c-4.461 0-8.089-3.629-8.089-8.089l-.001-15.103zm-98.66 0c0-7.042 5.729-12.772 12.772-12.772 7.042 0 12.772 5.729 12.772 12.772v15.103c0 4.461-3.629 8.089-8.09 8.089h-9.364c-4.461 0-8.089-3.629-8.089-8.089l-.001-15.103zm-98.335 0c0-7.042 5.729-12.772 12.772-12.772 7.042 0 12.772 5.729 12.772 12.772v15.103c0 4.461-3.629 8.089-8.089 8.089h-9.364c-4.461 0-8.089-3.629-8.089-8.089l-.002-15.103zm-26.288 79.218c1.504-20.101 18.34-35.996 38.819-35.996h.481c20.479 0 37.315 15.895 38.819 35.996H20.107zm98.336 0c1.504-20.101 18.341-35.996 38.82-35.996h.481c20.479 0 37.315 15.895 38.819 35.996h-78.12zm98.659 0c1.504-20.101 18.34-35.996 38.819-35.996h.481c20.479 0 37.315 15.895 38.819 35.996h-78.119zm98.335 0c1.504-20.101 18.34-35.996 38.819-35.996h.481c20.479 0 37.315 15.895 38.819 35.996h-78.119zm98.337 0c1.504-20.101 18.34-35.996 38.819-35.996h.481c20.479 0 37.315 15.895 38.819 35.996h-78.119z"/>
  <path d="M457.95 106.337c0-5.522-4.477-9.999-9.999-9.999s-9.999 4.477-9.999 9.999v.292c0 5.522 4.477 9.999 9.999 9.999s9.999-4.477 9.999-9.999v-.292z"/>
  <path d="M245.973 202.005c0 5.522 4.477 9.999 9.999 9.999h191.979c5.522 0 9.999-4.477 9.999-9.999v-58.327c0-5.522-4.477-9.999-9.999-9.999s-9.999 4.477-9.999 9.999v48.328h-181.98c-5.522.001-9.999 4.477-9.999 9.999z"/>
  <path d="M64.023 235.003h132.134c4.045 0 7.519-2.406 9.094-5.86l35.428-55.772a10 10 0 00-1.952-12.97l-1.785-1.523 19.295-24.316c3.433-4.327 2.708-10.616-1.618-14.047-4.327-3.433-10.616-2.709-14.047 1.618l-18.878 23.791a9.994 9.994 0 00-12.94 1.017l-2.599 2.599v-2.628c0-17.439-11.071-32.992-27.548-38.703L163.573 103c4.48-5.736 7.159-12.944 7.159-20.77V66.656c8.743-5.807 14.52-15.74 14.52-27v-19.63h252.699v51.327c0 5.522 4.477 9.999 9.999 9.999s9.999-4.477 9.999-9.999V10.027c0-5.522-4.477-9.999-9.999-9.999H153.983c-5.522 0-9.999 4.477-9.999 9.999v1.99h-39.686c-11.863 0-21.514 9.651-21.514 21.514V48.89c0 6.968 3.098 13.224 7.983 17.473V82.23c0 7.874 2.713 15.121 7.242 20.876l-15.856 5.229a40.887 40.887 0 00-28.131 38.899v77.77c.002 5.522 4.479 9.999 10.001 9.999zm46.743-162.951h39.968v10.179c0 7.62-6.199 13.818-13.818 13.818h-12.331c-7.62 0-13.818-6.199-13.818-13.818l-.001-10.179zm26.149 43.995c.087 0 .172-.006.259-.007l-5.553 15.929-5.55-15.922h10.844zm-34.132-82.516c0-.836.68-1.516 1.516-1.516h45.521c5.329 0 10.57-1.044 15.435-3.028v10.668c0 6.836-5.562 12.399-12.399 12.399h-46.91a3.167 3.167 0 01-3.164-3.164V33.531zM74.022 147.234a20.926 20.926 0 0114.396-19.908l18.302-6.035 15.459 44.345a10 10 0 0018.884 0l15.325-43.961 15.671 5.43a20.974 20.974 0 0114.098 19.807v22.626l-3.082 3.082c-3.905 3.905-3.905 10.236 0 14.141s10.236 3.905 14.141 0l4.349-4.349a10.042 10.042 0 002.992-2.992l11.806-11.807 2.777 2.369-28.601 45.024h-18.816v-16.665c0-5.522-4.477-9.999-9.999-9.999s-9.999 4.477-9.999 9.999v16.665h-40.099v-16.665c0-5.522-4.477-9.999-9.999-9.999s-9.999 4.477-9.999 9.999v16.665H74.022v-67.772z"/>
  <path d="M215.83 61.048h194.458c5.522 0 9.999-4.477 9.999-9.999s-4.477-9.999-9.999-9.999H215.83c-5.522 0-9.999 4.477-9.999 9.999s4.477 9.999 9.999 9.999z"/>
  <path d="M215.83 110.048h194.458c5.522 0 9.999-4.477 9.999-9.999s-4.477-9.999-9.999-9.999H215.83c-5.522 0-9.999 4.477-9.999 9.999s4.477 9.999 9.999 9.999z"/>
  <path d="M410.288 139.051H334.15c-5.522 0-9.999 4.477-9.999 9.999s4.477 9.999 9.999 9.999h76.138c5.522 0 9.999-4.477 9.999-9.999s-4.477-9.999-9.999-9.999z"/>
  <path d="M300.967 159.049h.605c5.522 0 9.999-4.477 9.999-9.999s-4.477-9.999-9.999-9.999h-.605c-5.522 0-9.999 4.477-9.999 9.999 0 5.523 4.477 9.999 9.999 9.999z"/>
</svg>
